<?xml version="1.0" encoding="UTF-8"?>
<svg id="Layer_1" data-name="Layer 1" xmlns="http://www.w3.org/2000/svg" xmlns:xlink="http://www.w3.org/1999/xlink" viewBox="0 0 951.19 539.02">
  <defs>
    <style>
      .cls-1 {
        fill: #fff;
      }

      .cls-1, .cls-2 {
        stroke: #231f20;
        stroke-miterlimit: 10;
        stroke-width: 8px;
      }

      .cls-2 {
        fill: #fff200;
      }

      .cls-3, .cls-4 {
        stroke-width: 0px;
      }

      .cls-4 {
        fill: none;
      }

      .cls-5 {
        filter: url(#drop-shadow-1);
      }

      .cls-6 {
        clip-path: url(#clippath);
      }
    </style>
    <clipPath id="clippath">
      <path class="cls-4" d="m755.72,249.11v196.65c0,30.26-24.52,54.78-54.78,54.78H130.13c-30.26,0-54.79-24.52-54.79-54.78v-196.65c0-30.26,24.53-54.79,54.79-54.79h570.81c30.26,0,54.78,24.53,54.78,54.79Z"/>
    </clipPath>
    <filter id="drop-shadow-1" filterUnits="userSpaceOnUse">
      <feOffset dx="7" dy="7"/>
      <feGaussianBlur result="blur" stdDeviation="5"/>
      <feFlood flood-color="#231f20" flood-opacity=".33"/>
      <feComposite in2="blur" operator="in"/>
      <feComposite in="SourceGraphic"/>
    </filter>
  </defs>
  <path class="cls-2" d="m755.72,249.11v196.65c0,30.26-24.52,54.78-54.78,54.78H130.13c-30.26,0-54.79-24.52-54.79-54.78v-196.65c0-30.26,24.53-54.79,54.79-54.79h570.81c30.26,0,54.78,24.53,54.78,54.79Z"/>
  <g class="cls-6">
    <rect class="cls-3" x="47.65" y="217.92" width="172.45" height="24.88" transform="translate(-109.39 121.69) rotate(-35.76)"/>
    <rect class="cls-3" x="-25.93" y="270.49" width="352.15" height="24.88" transform="translate(-137.05 141.11) rotate(-35.76)"/>
    <rect class="cls-3" x="406.15" y="267.27" width="653.46" height="24.88" transform="translate(479.84 -462.8) rotate(50.29)"/>
    <rect class="cls-3" x="335.7" y="246.86" width="653.46" height="24.88" transform="translate(438.7 -415.97) rotate(50.29)"/>
    <g class="cls-5">
      <path class="cls-1" d="m115.17,262.69c12.7-1.94,27.81-3.39,44.35-3.39,29.96,0,51.3,7.02,65.44,20.34,14.38,13.32,22.77,32.21,22.77,58.6s-8.15,48.43-23.25,63.44c-15.1,15.26-40.03,23.49-71.43,23.49-14.86,0-27.33-.73-37.87-1.94v-160.54Zm20.85,144.32c5.27.97,12.94,1.21,21.09,1.21,44.59,0,68.8-25.18,68.8-69.25.24-38.5-21.33-62.96-65.44-62.96-10.79,0-18.94.97-24.45,2.18v128.82Z"/>
      <path class="cls-1" d="m274.81,262.69c10.55-2.18,25.65-3.39,40.03-3.39,22.29,0,36.68,4.12,46.74,13.32,8.15,7.26,12.7,18.4,12.7,30.99,0,21.55-13.42,35.84-30.44,41.65v.73c12.46,4.36,19.9,15.98,23.73,32.93,5.27,22.76,9.11,38.5,12.46,44.8h-21.57c-2.64-4.6-6.23-18.65-10.79-38.99-4.79-22.52-13.42-31-32.36-31.72h-19.66v70.71h-20.85v-161.03Zm20.85,74.34h21.33c22.29,0,36.44-12.35,36.44-30.99,0-21.07-15.1-30.27-37.15-30.51-10.07,0-17.26.97-20.61,1.94v59.57Z"/>
      <path class="cls-1" d="m424.62,260.51v163.21h-20.85v-163.21h20.85Z"/>
      <path class="cls-1" d="m461.06,423.72v-163.21h22.77l51.78,82.57c11.98,19.13,21.33,36.32,29.01,53.03l.48-.24c-1.92-21.79-2.4-41.65-2.4-67.07v-68.29h19.66v163.21h-21.09l-51.3-82.81c-11.27-18.16-22.05-36.81-30.2-54.48l-.72.24c1.2,20.58,1.68,40.2,1.68,67.32v69.74h-19.66Z"/>
      <path class="cls-1" d="m618.78,260.51h20.85v78.7h.72c4.31-6.3,8.63-12.11,12.71-17.43l49.38-61.26h25.89l-58.49,69.25,63.04,93.95h-24.69l-53.22-80.15-15.34,17.92v62.23h-20.85v-163.21Z"/>
    </g>
  </g>
</svg>