<svg width="1750" height="762" viewBox="0 0 1750 762" fill="none" xmlns="http://www.w3.org/2000/svg">
<g id="Frame 1">
<rect width="1750" height="762" fill="white"/>
<g id="MILKSHAKE" filter="url(#filter0_di_10_26)">
<path d="M952.045 310.909H979.909L1003.55 368.545H1004.64L1028.27 310.909H1056.14V404H1034.23V346.818H1033.45L1011.09 403.409H997.091L974.727 346.5H973.955V404H952.045V310.909ZM1092.67 310.909V404H1070.17V310.909H1092.67ZM1106.8 404V310.909H1129.3V385.727H1168.02V404H1106.8ZM1179.67 404V310.909H1202.17V350.273H1203.4L1234.17 310.909H1260.67L1227.67 352.455L1261.26 404H1234.35L1211.17 367.409L1202.17 378.773V404H1179.67ZM1318.86 338.818C1318.56 335.485 1317.21 332.894 1314.82 331.045C1312.45 329.167 1309.08 328.227 1304.68 328.227C1301.77 328.227 1299.35 328.606 1297.41 329.364C1295.47 330.121 1294.02 331.167 1293.05 332.5C1292.08 333.803 1291.58 335.303 1291.55 337C1291.48 338.394 1291.76 339.621 1292.36 340.682C1293 341.742 1293.91 342.682 1295.09 343.5C1296.3 344.288 1297.76 344.985 1299.45 345.591C1301.15 346.197 1303.06 346.727 1305.18 347.182L1313.18 349C1317.79 350 1321.85 351.333 1325.36 353C1328.91 354.667 1331.88 356.652 1334.27 358.955C1336.7 361.258 1338.53 363.909 1339.77 366.909C1341.02 369.909 1341.65 373.273 1341.68 377C1341.65 382.879 1340.17 387.924 1337.23 392.136C1334.29 396.348 1330.06 399.576 1324.55 401.818C1319.06 404.061 1312.44 405.182 1304.68 405.182C1296.89 405.182 1290.11 404.015 1284.32 401.682C1278.53 399.348 1274.03 395.803 1270.82 391.045C1267.61 386.288 1265.95 380.273 1265.86 373H1287.41C1287.59 376 1288.39 378.5 1289.82 380.5C1291.24 382.5 1293.2 384.015 1295.68 385.045C1298.2 386.076 1301.11 386.591 1304.41 386.591C1307.44 386.591 1310.02 386.182 1312.14 385.364C1314.29 384.545 1315.94 383.409 1317.09 381.955C1318.24 380.5 1318.83 378.833 1318.86 376.955C1318.83 375.197 1318.29 373.697 1317.23 372.455C1316.17 371.182 1314.53 370.091 1312.32 369.182C1310.14 368.242 1307.35 367.379 1303.95 366.591L1294.23 364.318C1286.17 362.47 1279.82 359.485 1275.18 355.364C1270.55 351.212 1268.24 345.606 1268.27 338.545C1268.24 332.788 1269.79 327.742 1272.91 323.409C1276.03 319.076 1280.35 315.697 1285.86 313.273C1291.38 310.848 1297.67 309.636 1304.73 309.636C1311.94 309.636 1318.2 310.864 1323.5 313.318C1328.83 315.742 1332.97 319.152 1335.91 323.545C1338.85 327.939 1340.35 333.03 1340.41 338.818H1318.86ZM1353.05 404V310.909H1375.55V348.273H1412.23V310.909H1434.68V404H1412.23V366.591H1375.55V404H1353.05ZM1468.93 404H1444.75L1476.16 310.909H1506.11L1537.52 404H1513.34L1491.48 334.364H1490.75L1468.93 404ZM1465.7 367.364H1516.25V384.455H1465.7V367.364ZM1547.55 404V310.909H1570.05V350.273H1571.27L1602.05 310.909H1628.55L1595.55 352.455L1629.14 404H1602.23L1579.05 367.409L1570.05 378.773V404H1547.55ZM1637.42 404V310.909H1702.33V329.182H1659.92V348.273H1699.01V366.591H1659.92V385.727H1702.33V404H1637.42Z" fill="url(#paint0_linear_10_26)" shape-rendering="crispEdges"/>
</g>
<g id="DRINK" filter="url(#filter1_di_10_26)">
<path d="M986.455 249H952.045V155.909H986.409C995.894 155.909 1004.06 157.773 1010.91 161.5C1017.79 165.197 1023.09 170.53 1026.82 177.5C1030.55 184.439 1032.41 192.742 1032.41 202.409C1032.41 212.106 1030.55 220.439 1026.82 227.409C1023.12 234.379 1017.83 239.727 1010.95 243.455C1004.08 247.152 995.909 249 986.455 249ZM974.545 229.818H985.591C990.803 229.818 995.212 228.939 998.818 227.182C1002.45 225.394 1005.2 222.5 1007.05 218.5C1008.92 214.47 1009.86 209.106 1009.86 202.409C1009.86 195.712 1008.92 190.379 1007.05 186.409C1005.17 182.409 1002.39 179.53 998.727 177.773C995.091 175.985 990.606 175.091 985.273 175.091H974.545V229.818ZM1045.55 249V155.909H1084C1090.97 155.909 1096.98 157.167 1102.05 159.682C1107.14 162.167 1111.06 165.742 1113.82 170.409C1116.58 175.045 1117.95 180.545 1117.95 186.909C1117.95 193.364 1116.55 198.848 1113.73 203.364C1110.91 207.848 1106.91 211.273 1101.73 213.636C1096.55 215.97 1090.41 217.136 1083.32 217.136H1059V199.409H1079.14C1082.53 199.409 1085.36 198.97 1087.64 198.091C1089.94 197.182 1091.68 195.818 1092.86 194C1094.05 192.152 1094.64 189.788 1094.64 186.909C1094.64 184.03 1094.05 181.652 1092.86 179.773C1091.68 177.864 1089.94 176.439 1087.64 175.5C1085.33 174.53 1082.5 174.045 1079.14 174.045H1068.05V249H1045.55ZM1097.95 206.455L1121.14 249H1096.59L1073.86 206.455H1097.95ZM1152.8 155.909V249H1130.3V155.909H1152.8ZM1246.15 155.909V249H1227.06L1190.01 195.273H1189.42V249H1166.92V155.909H1186.28L1222.92 209.545H1223.69V155.909H1246.15ZM1260.3 249V155.909H1282.8V195.273H1284.02L1314.8 155.909H1341.3L1308.3 197.455L1341.89 249H1314.98L1291.8 212.409L1282.8 223.773V249H1260.3Z" fill="url(#paint1_linear_10_26)" shape-rendering="crispEdges"/>
</g>
<path id="TRY OUR" d="M324 174.182V155.909H402.682V174.182H374.455V249H352.273V174.182H324ZM413.67 249V155.909H452.125C459.095 155.909 465.11 157.167 470.17 159.682C475.261 162.167 479.186 165.742 481.943 170.409C484.701 175.045 486.08 180.545 486.08 186.909C486.08 193.364 484.67 198.848 481.852 203.364C479.034 207.848 475.034 211.273 469.852 213.636C464.67 215.97 458.534 217.136 451.443 217.136H427.125V199.409H447.261C450.655 199.409 453.489 198.97 455.761 198.091C458.064 197.182 459.807 195.818 460.989 194C462.17 192.152 462.761 189.788 462.761 186.909C462.761 184.03 462.17 181.652 460.989 179.773C459.807 177.864 458.064 176.439 455.761 175.5C453.458 174.53 450.625 174.045 447.261 174.045H436.17V249H413.67ZM466.08 206.455L489.261 249H464.716L441.989 206.455H466.08ZM489.659 155.909H514.795L534.477 194.864H535.295L554.977 155.909H580.114L546.068 217.909V249H523.705V217.909L489.659 155.909ZM704.909 202.455C704.909 212.697 702.939 221.379 699 228.5C695.061 235.621 689.727 241.03 683 244.727C676.303 248.424 668.788 250.273 660.455 250.273C652.091 250.273 644.561 248.409 637.864 244.682C631.167 240.955 625.848 235.545 621.909 228.455C618 221.333 616.045 212.667 616.045 202.455C616.045 192.212 618 183.53 621.909 176.409C625.848 169.288 631.167 163.879 637.864 160.182C644.561 156.485 652.091 154.636 660.455 154.636C668.788 154.636 676.303 156.485 683 160.182C689.727 163.879 695.061 169.288 699 176.409C702.939 183.53 704.909 192.212 704.909 202.455ZM681.909 202.455C681.909 196.394 681.045 191.273 679.318 187.091C677.621 182.909 675.167 179.742 671.955 177.591C668.773 175.439 664.939 174.364 660.455 174.364C656 174.364 652.167 175.439 648.955 177.591C645.742 179.742 643.273 182.909 641.545 187.091C639.848 191.273 639 196.394 639 202.455C639 208.515 639.848 213.636 641.545 217.818C643.273 222 645.742 225.167 648.955 227.318C652.167 229.47 656 230.545 660.455 230.545C664.939 230.545 668.773 229.47 671.955 227.318C675.167 225.167 677.621 222 679.318 217.818C681.045 213.636 681.909 208.515 681.909 202.455ZM774.364 155.909H796.818V215.955C796.818 222.894 795.167 228.939 791.864 234.091C788.561 239.212 783.955 243.182 778.045 246C772.136 248.788 765.273 250.182 757.455 250.182C749.545 250.182 742.636 248.788 736.727 246C730.818 243.182 726.227 239.212 722.955 234.091C719.682 228.939 718.045 222.894 718.045 215.955V155.909H740.545V214C740.545 217.212 741.242 220.076 742.636 222.591C744.061 225.106 746.045 227.076 748.591 228.5C751.136 229.924 754.091 230.636 757.455 230.636C760.818 230.636 763.758 229.924 766.273 228.5C768.818 227.076 770.803 225.106 772.227 222.591C773.652 220.076 774.364 217.212 774.364 214V155.909ZM810.92 249V155.909H849.375C856.345 155.909 862.36 157.167 867.42 159.682C872.511 162.167 876.436 165.742 879.193 170.409C881.951 175.045 883.33 180.545 883.33 186.909C883.33 193.364 881.92 198.848 879.102 203.364C876.284 207.848 872.284 211.273 867.102 213.636C861.92 215.97 855.784 217.136 848.693 217.136H824.375V199.409H844.511C847.905 199.409 850.739 198.97 853.011 198.091C855.314 197.182 857.057 195.818 858.239 194C859.42 192.152 860.011 189.788 860.011 186.909C860.011 184.03 859.42 181.652 858.239 179.773C857.057 177.864 855.314 176.439 853.011 175.5C850.708 174.53 847.875 174.045 844.511 174.045H833.42V249H810.92ZM863.33 206.455L886.511 249H861.966L839.239 206.455H863.33Z" fill="black"/>
<g id="ICE CREAM" filter="url(#filter2_di_10_26)">
<path d="M974.545 447.909V541H952.045V447.909H974.545ZM1073.17 481.636H1050.44C1050.14 479.303 1049.52 477.197 1048.58 475.318C1047.64 473.439 1046.4 471.833 1044.85 470.5C1043.31 469.167 1041.47 468.152 1039.35 467.455C1037.26 466.727 1034.94 466.364 1032.4 466.364C1027.88 466.364 1023.99 467.47 1020.72 469.682C1017.47 471.894 1014.97 475.091 1013.22 479.273C1011.49 483.455 1010.62 488.515 1010.62 494.455C1010.62 500.636 1011.5 505.818 1013.26 510C1015.05 514.152 1017.55 517.288 1020.76 519.409C1024 521.5 1027.84 522.545 1032.26 522.545C1034.75 522.545 1037 522.227 1039.03 521.591C1041.09 520.955 1042.9 520.03 1044.44 518.818C1046.02 517.576 1047.31 516.076 1048.31 514.318C1049.34 512.53 1050.05 510.515 1050.44 508.273L1073.17 508.409C1072.78 512.53 1071.58 516.591 1069.58 520.591C1067.61 524.591 1064.9 528.242 1061.44 531.545C1057.99 534.818 1053.78 537.424 1048.81 539.364C1043.87 541.303 1038.2 542.273 1031.81 542.273C1023.38 542.273 1015.84 540.424 1009.17 536.727C1002.53 533 997.292 527.576 993.443 520.455C989.595 513.333 987.67 504.667 987.67 494.455C987.67 484.212 989.625 475.53 993.534 468.409C997.443 461.288 1002.73 455.879 1009.4 452.182C1016.06 448.485 1023.53 446.636 1031.81 446.636C1037.44 446.636 1042.66 447.424 1047.44 449C1052.23 450.545 1056.44 452.818 1060.08 455.818C1063.72 458.788 1066.67 462.439 1068.94 466.773C1071.22 471.106 1072.62 476.061 1073.17 481.636ZM1086.05 541V447.909H1150.95V466.182H1108.55V485.273H1147.64V503.591H1108.55V522.727H1150.95V541H1086.05ZM1277.05 481.636H1254.32C1254.02 479.303 1253.39 477.197 1252.45 475.318C1251.52 473.439 1250.27 471.833 1248.73 470.5C1247.18 469.167 1245.35 468.152 1243.23 467.455C1241.14 466.727 1238.82 466.364 1236.27 466.364C1231.76 466.364 1227.86 467.47 1224.59 469.682C1221.35 471.894 1218.85 475.091 1217.09 479.273C1215.36 483.455 1214.5 488.515 1214.5 494.455C1214.5 500.636 1215.38 505.818 1217.14 510C1218.92 514.152 1221.42 517.288 1224.64 519.409C1227.88 521.5 1231.71 522.545 1236.14 522.545C1238.62 522.545 1240.88 522.227 1242.91 521.591C1244.97 520.955 1246.77 520.03 1248.32 518.818C1249.89 517.576 1251.18 516.076 1252.18 514.318C1253.21 512.53 1253.92 510.515 1254.32 508.273L1277.05 508.409C1276.65 512.53 1275.45 516.591 1273.45 520.591C1271.48 524.591 1268.77 528.242 1265.32 531.545C1261.86 534.818 1257.65 537.424 1252.68 539.364C1247.74 541.303 1242.08 542.273 1235.68 542.273C1227.26 542.273 1219.71 540.424 1213.05 536.727C1206.41 533 1201.17 527.576 1197.32 520.455C1193.47 513.333 1191.55 504.667 1191.55 494.455C1191.55 484.212 1193.5 475.53 1197.41 468.409C1201.32 461.288 1206.61 455.879 1213.27 452.182C1219.94 448.485 1227.41 446.636 1235.68 446.636C1241.32 446.636 1246.53 447.424 1251.32 449C1256.11 450.545 1260.32 452.818 1263.95 455.818C1267.59 458.788 1270.55 462.439 1272.82 466.773C1275.09 471.106 1276.5 476.061 1277.05 481.636ZM1289.92 541V447.909H1328.38C1335.34 447.909 1341.36 449.167 1346.42 451.682C1351.51 454.167 1355.44 457.742 1358.19 462.409C1360.95 467.045 1362.33 472.545 1362.33 478.909C1362.33 485.364 1360.92 490.848 1358.1 495.364C1355.28 499.848 1351.28 503.273 1346.1 505.636C1340.92 507.97 1334.78 509.136 1327.69 509.136H1303.38V491.409H1323.51C1326.91 491.409 1329.74 490.97 1332.01 490.091C1334.31 489.182 1336.06 487.818 1337.24 486C1338.42 484.152 1339.01 481.788 1339.01 478.909C1339.01 476.03 1338.42 473.652 1337.24 471.773C1336.06 469.864 1334.31 468.439 1332.01 467.5C1329.71 466.53 1326.88 466.045 1323.51 466.045H1312.42V541H1289.92ZM1342.33 498.455L1365.51 541H1340.97L1318.24 498.455H1342.33ZM1374.67 541V447.909H1439.58V466.182H1397.17V485.273H1436.26V503.591H1397.17V522.727H1439.58V541H1374.67ZM1473.81 541H1449.62L1481.03 447.909H1510.99L1542.4 541H1518.22L1496.35 471.364H1495.62L1473.81 541ZM1470.58 504.364H1521.12V521.455H1470.58V504.364ZM1552.42 447.909H1580.28L1603.92 505.545H1605.01L1628.65 447.909H1656.51V541H1634.6V483.818H1633.83L1611.47 540.409H1597.47L1575.1 483.5H1574.33V541H1552.42V447.909Z" fill="url(#paint2_linear_10_26)" shape-rendering="crispEdges"/>
</g>
</g>
<defs>
<filter id="filter0_di_10_26" x="948.045" y="309.636" width="758.284" height="103.545" filterUnits="userSpaceOnUse" color-interpolation-filters="sRGB">
<feFlood flood-opacity="0" result="BackgroundImageFix"/>
<feColorMatrix in="SourceAlpha" type="matrix" values="0 0 0 0 0 0 0 0 0 0 0 0 0 0 0 0 0 0 127 0" result="hardAlpha"/>
<feOffset dy="4"/>
<feGaussianBlur stdDeviation="2"/>
<feComposite in2="hardAlpha" operator="out"/>
<feColorMatrix type="matrix" values="0 0 0 0 0 0 0 0 0 0 0 0 0 0 0 0 0 0 0.25 0"/>
<feBlend mode="normal" in2="BackgroundImageFix" result="effect1_dropShadow_10_26"/>
<feBlend mode="normal" in="SourceGraphic" in2="effect1_dropShadow_10_26" result="shape"/>
<feColorMatrix in="SourceAlpha" type="matrix" values="0 0 0 0 0 0 0 0 0 0 0 0 0 0 0 0 0 0 127 0" result="hardAlpha"/>
<feOffset dy="4"/>
<feGaussianBlur stdDeviation="2"/>
<feComposite in2="hardAlpha" operator="arithmetic" k2="-1" k3="1"/>
<feColorMatrix type="matrix" values="0 0 0 0 0 0 0 0 0 0 0 0 0 0 0 0 0 0 0.25 0"/>
<feBlend mode="normal" in2="shape" result="effect2_innerShadow_10_26"/>
</filter>
<filter id="filter1_di_10_26" x="948.045" y="155.909" width="397.841" height="101.091" filterUnits="userSpaceOnUse" color-interpolation-filters="sRGB">
<feFlood flood-opacity="0" result="BackgroundImageFix"/>
<feColorMatrix in="SourceAlpha" type="matrix" values="0 0 0 0 0 0 0 0 0 0 0 0 0 0 0 0 0 0 127 0" result="hardAlpha"/>
<feOffset dy="4"/>
<feGaussianBlur stdDeviation="2"/>
<feComposite in2="hardAlpha" operator="out"/>
<feColorMatrix type="matrix" values="0 0 0 0 0 0 0 0 0 0 0 0 0 0 0 0 0 0 0.25 0"/>
<feBlend mode="normal" in2="BackgroundImageFix" result="effect1_dropShadow_10_26"/>
<feBlend mode="normal" in="SourceGraphic" in2="effect1_dropShadow_10_26" result="shape"/>
<feColorMatrix in="SourceAlpha" type="matrix" values="0 0 0 0 0 0 0 0 0 0 0 0 0 0 0 0 0 0 127 0" result="hardAlpha"/>
<feOffset dy="4"/>
<feGaussianBlur stdDeviation="2"/>
<feComposite in2="hardAlpha" operator="arithmetic" k2="-1" k3="1"/>
<feColorMatrix type="matrix" values="0 0 0 0 0 0 0 0 0 0 0 0 0 0 0 0 0 0 0.25 0"/>
<feBlend mode="normal" in2="shape" result="effect2_innerShadow_10_26"/>
</filter>
<filter id="filter2_di_10_26" x="948.045" y="446.636" width="712.466" height="103.636" filterUnits="userSpaceOnUse" color-interpolation-filters="sRGB">
<feFlood flood-opacity="0" result="BackgroundImageFix"/>
<feColorMatrix in="SourceAlpha" type="matrix" values="0 0 0 0 0 0 0 0 0 0 0 0 0 0 0 0 0 0 127 0" result="hardAlpha"/>
<feOffset dy="4"/>
<feGaussianBlur stdDeviation="2"/>
<feComposite in2="hardAlpha" operator="out"/>
<feColorMatrix type="matrix" values="0 0 0 0 0 0 0 0 0 0 0 0 0 0 0 0 0 0 0.25 0"/>
<feBlend mode="normal" in2="BackgroundImageFix" result="effect1_dropShadow_10_26"/>
<feBlend mode="normal" in="SourceGraphic" in2="effect1_dropShadow_10_26" result="shape"/>
<feColorMatrix in="SourceAlpha" type="matrix" values="0 0 0 0 0 0 0 0 0 0 0 0 0 0 0 0 0 0 127 0" result="hardAlpha"/>
<feOffset dy="4"/>
<feGaussianBlur stdDeviation="2"/>
<feComposite in2="hardAlpha" operator="arithmetic" k2="-1" k3="1"/>
<feColorMatrix type="matrix" values="0 0 0 0 0 0 0 0 0 0 0 0 0 0 0 0 0 0 0.25 0"/>
<feBlend mode="normal" in2="shape" result="effect2_innerShadow_10_26"/>
</filter>
<linearGradient id="paint0_linear_10_26" x1="1327.5" y1="280" x2="1327.5" y2="435" gradientUnits="userSpaceOnUse">
<stop stop-color="#FF7E07"/>
<stop offset="1" stop-color="#FFE607" stop-opacity="0"/>
</linearGradient>
<linearGradient id="paint1_linear_10_26" x1="1144.5" y1="125" x2="1144.5" y2="280" gradientUnits="userSpaceOnUse">
<stop stop-color="#07D2FF"/>
<stop offset="1" stop-color="#FFE607" stop-opacity="0"/>
</linearGradient>
<linearGradient id="paint2_linear_10_26" x1="1304.5" y1="417" x2="1304.5" y2="572" gradientUnits="userSpaceOnUse">
<stop stop-color="#FF6B00"/>
<stop offset="1" stop-color="#6607FF" stop-opacity="0"/>
</linearGradient>
</defs>
</svg>
