<svg width="1454" height="155" viewBox="0 0 1454 155" fill="none" xmlns="http://www.w3.org/2000/svg">
<g filter="url(#filter0_d_4_5)">
<path d="M94.9091 77.4545C94.9091 87.697 92.9394 96.3788 89 103.5C85.0606 110.621 79.7273 116.03 73 119.727C66.303 123.424 58.7879 125.273 50.4545 125.273C42.0909 125.273 34.5606 123.409 27.8636 119.682C21.1667 115.955 15.8485 110.545 11.9091 103.455C8 96.3333 6.04545 87.6667 6.04545 77.4545C6.04545 67.2121 8 58.5303 11.9091 51.4091C15.8485 44.2879 21.1667 38.8788 27.8636 35.1818C34.5606 31.4848 42.0909 29.6364 50.4545 29.6364C58.7879 29.6364 66.303 31.4848 73 35.1818C79.7273 38.8788 85.0606 44.2879 89 51.4091C92.9394 58.5303 94.9091 67.2121 94.9091 77.4545ZM71.9091 77.4545C71.9091 71.3939 71.0455 66.2727 69.3182 62.0909C67.6212 57.9091 65.1667 54.7424 61.9545 52.5909C58.7727 50.4394 54.9394 49.3636 50.4545 49.3636C46 49.3636 42.1667 50.4394 38.9545 52.5909C35.7424 54.7424 33.2727 57.9091 31.5455 62.0909C29.8485 66.2727 29 71.3939 29 77.4545C29 83.5151 29.8485 88.6364 31.5455 92.8182C33.2727 97 35.7424 100.167 38.9545 102.318C42.1667 104.47 46 105.545 50.4545 105.545C54.9394 105.545 58.7727 104.47 61.9545 102.318C65.1667 100.167 67.6212 97 69.3182 92.8182C71.0455 88.6364 71.9091 83.5151 71.9091 77.4545ZM164.364 30.9091H186.818V90.9545C186.818 97.8939 185.167 103.939 181.864 109.091C178.561 114.212 173.955 118.182 168.045 121C162.136 123.788 155.273 125.182 147.455 125.182C139.545 125.182 132.636 123.788 126.727 121C120.818 118.182 116.227 114.212 112.955 109.091C109.682 103.939 108.045 97.8939 108.045 90.9545V30.9091H130.545V89C130.545 92.2121 131.242 95.0758 132.636 97.5909C134.061 100.106 136.045 102.076 138.591 103.5C141.136 104.924 144.091 105.636 147.455 105.636C150.818 105.636 153.758 104.924 156.273 103.5C158.818 102.076 160.803 100.106 162.227 97.5909C163.652 95.0758 164.364 92.2121 164.364 89V30.9091ZM200.92 124V30.9091H239.375C246.345 30.9091 252.36 32.1667 257.42 34.6818C262.511 37.1667 266.436 40.7424 269.193 45.4091C271.951 50.0455 273.33 55.5455 273.33 61.9091C273.33 68.3636 271.92 73.8485 269.102 78.3636C266.284 82.8485 262.284 86.2727 257.102 88.6364C251.92 90.9697 245.784 92.1364 238.693 92.1364H214.375V74.4091H234.511C237.905 74.4091 240.739 73.9697 243.011 73.0909C245.314 72.1818 247.057 70.8182 248.239 69C249.42 67.1515 250.011 64.7879 250.011 61.9091C250.011 59.0303 249.42 56.6515 248.239 54.7727C247.057 52.8636 245.314 51.4394 243.011 50.5C240.708 49.5303 237.875 49.0455 234.511 49.0455H223.42V124H200.92ZM253.33 81.4545L276.511 124H251.966L229.239 81.4545H253.33ZM397.67 64.6364H374.943C374.64 62.303 374.019 60.197 373.08 58.3182C372.14 56.4394 370.898 54.8333 369.352 53.5C367.807 52.1667 365.973 51.1515 363.852 50.4545C361.761 49.7273 359.443 49.3636 356.898 49.3636C352.383 49.3636 348.489 50.4697 345.216 52.6818C341.973 54.8939 339.473 58.0909 337.716 62.2727C335.989 66.4545 335.125 71.5151 335.125 77.4545C335.125 83.6364 336.004 88.8182 337.761 93C339.549 97.1515 342.049 100.288 345.261 102.409C348.504 104.5 352.337 105.545 356.761 105.545C359.246 105.545 361.504 105.227 363.534 104.591C365.595 103.955 367.398 103.03 368.943 101.818C370.519 100.576 371.807 99.0758 372.807 97.3182C373.837 95.5303 374.549 93.5152 374.943 91.2727L397.67 91.4091C397.277 95.5303 396.08 99.5909 394.08 103.591C392.11 107.591 389.398 111.242 385.943 114.545C382.489 117.818 378.277 120.424 373.307 122.364C368.367 124.303 362.701 125.273 356.307 125.273C347.883 125.273 340.337 123.424 333.67 119.727C327.034 116 321.792 110.576 317.943 103.455C314.095 96.3333 312.17 87.6667 312.17 77.4545C312.17 67.2121 314.125 58.5303 318.034 51.4091C321.943 44.2879 327.231 38.8788 333.898 35.1818C340.564 31.4848 348.034 29.6364 356.307 29.6364C361.943 29.6364 367.155 30.4242 371.943 32C376.731 33.5455 380.943 35.8182 384.58 38.8182C388.216 41.7879 391.17 45.4394 393.443 49.7727C395.716 54.1061 397.125 59.0606 397.67 64.6364ZM498.409 77.4545C498.409 87.697 496.439 96.3788 492.5 103.5C488.561 110.621 483.227 116.03 476.5 119.727C469.803 123.424 462.288 125.273 453.955 125.273C445.591 125.273 438.061 123.409 431.364 119.682C424.667 115.955 419.348 110.545 415.409 103.455C411.5 96.3333 409.545 87.6667 409.545 77.4545C409.545 67.2121 411.5 58.5303 415.409 51.4091C419.348 44.2879 424.667 38.8788 431.364 35.1818C438.061 31.4848 445.591 29.6364 453.955 29.6364C462.288 29.6364 469.803 31.4848 476.5 35.1818C483.227 38.8788 488.561 44.2879 492.5 51.4091C496.439 58.5303 498.409 67.2121 498.409 77.4545ZM475.409 77.4545C475.409 71.3939 474.545 66.2727 472.818 62.0909C471.121 57.9091 468.667 54.7424 465.455 52.5909C462.273 50.4394 458.439 49.3636 453.955 49.3636C449.5 49.3636 445.667 50.4394 442.455 52.5909C439.242 54.7424 436.773 57.9091 435.045 62.0909C433.348 66.2727 432.5 71.3939 432.5 77.4545C432.5 83.5151 433.348 88.6364 435.045 92.8182C436.773 97 439.242 100.167 442.455 102.318C445.667 104.47 449.5 105.545 453.955 105.545C458.439 105.545 462.273 104.47 465.455 102.318C468.667 100.167 471.121 97 472.818 92.8182C474.545 88.6364 475.409 83.5151 475.409 77.4545ZM599.409 77.4545C599.409 87.697 597.439 96.3788 593.5 103.5C589.561 110.621 584.227 116.03 577.5 119.727C570.803 123.424 563.288 125.273 554.955 125.273C546.591 125.273 539.061 123.409 532.364 119.682C525.667 115.955 520.348 110.545 516.409 103.455C512.5 96.3333 510.545 87.6667 510.545 77.4545C510.545 67.2121 512.5 58.5303 516.409 51.4091C520.348 44.2879 525.667 38.8788 532.364 35.1818C539.061 31.4848 546.591 29.6364 554.955 29.6364C563.288 29.6364 570.803 31.4848 577.5 35.1818C584.227 38.8788 589.561 44.2879 593.5 51.4091C597.439 58.5303 599.409 67.2121 599.409 77.4545ZM576.409 77.4545C576.409 71.3939 575.545 66.2727 573.818 62.0909C572.121 57.9091 569.667 54.7424 566.455 52.5909C563.273 50.4394 559.439 49.3636 554.955 49.3636C550.5 49.3636 546.667 50.4394 543.455 52.5909C540.242 54.7424 537.773 57.9091 536.045 62.0909C534.348 66.2727 533.5 71.3939 533.5 77.4545C533.5 83.5151 534.348 88.6364 536.045 92.8182C537.773 97 540.242 100.167 543.455 102.318C546.667 104.47 550.5 105.545 554.955 105.545C559.439 105.545 563.273 104.47 566.455 102.318C569.667 100.167 572.121 97 573.818 92.8182C575.545 88.6364 576.409 83.5151 576.409 77.4545ZM612.545 124V30.9091H635.045V105.727H673.773V124H612.545Z" fill="black"/>
</g>
<g clip-path="url(#clip0_4_5)">
<g filter="url(#filter1_d_4_5)">
<path d="M765.455 124H731.045V30.9091H765.409C774.894 30.9091 783.061 32.7727 789.909 36.5C796.788 40.197 802.091 45.5303 805.818 52.5C809.545 59.4394 811.409 67.7424 811.409 77.4091C811.409 87.1061 809.545 95.4394 805.818 102.409C802.121 109.379 796.833 114.727 789.955 118.455C783.076 122.152 774.909 124 765.455 124ZM753.545 104.818H764.591C769.803 104.818 774.212 103.939 777.818 102.182C781.455 100.394 784.197 97.5 786.045 93.5C787.924 89.4697 788.864 84.1061 788.864 77.4091C788.864 70.7121 787.924 65.3788 786.045 61.4091C784.167 57.4091 781.394 54.5303 777.727 52.7727C774.091 50.9848 769.606 50.0909 764.273 50.0909H753.545V104.818ZM824.545 124V30.9091H863C869.97 30.9091 875.985 32.1667 881.045 34.6818C886.136 37.1667 890.061 40.7424 892.818 45.4091C895.576 50.0455 896.955 55.5455 896.955 61.9091C896.955 68.3636 895.545 73.8485 892.727 78.3636C889.909 82.8485 885.909 86.2727 880.727 88.6364C875.545 90.9697 869.409 92.1364 862.318 92.1364H838V74.4091H858.136C861.53 74.4091 864.364 73.9697 866.636 73.0909C868.939 72.1818 870.682 70.8182 871.864 69C873.045 67.1515 873.636 64.7879 873.636 61.9091C873.636 59.0303 873.045 56.6515 871.864 54.7727C870.682 52.8636 868.939 51.4394 866.636 50.5C864.333 49.5303 861.5 49.0455 858.136 49.0455H847.045V124H824.545ZM876.955 81.4545L900.136 124H875.591L852.864 81.4545H876.955ZM931.795 30.9091V124H909.295V30.9091H931.795ZM1025.15 30.9091V124H1006.06L969.011 70.2727H968.42V124H945.92V30.9091H965.284L1001.92 84.5455H1002.69V30.9091H1025.15ZM1039.3 124V30.9091H1061.8V70.2727H1063.02L1093.8 30.9091H1120.3L1087.3 72.4545L1120.89 124H1093.98L1070.8 87.4091L1061.8 98.7727V124H1039.3ZM731.045 279V185.909H769.864C776.833 185.909 782.667 186.894 787.364 188.864C792.091 190.833 795.636 193.591 798 197.136C800.394 200.682 801.591 204.788 801.591 209.455C801.591 213 800.848 216.167 799.364 218.955C797.879 221.712 795.833 224 793.227 225.818C790.621 227.636 787.606 228.909 784.182 229.636V230.545C787.939 230.727 791.409 231.742 794.591 233.591C797.803 235.439 800.379 238.015 802.318 241.318C804.258 244.591 805.227 248.47 805.227 252.955C805.227 257.955 803.955 262.424 801.409 266.364C798.864 270.273 795.182 273.364 790.364 275.636C785.545 277.879 779.697 279 772.818 279H731.045ZM753.545 260.864H767.455C772.333 260.864 775.924 259.939 778.227 258.091C780.561 256.242 781.727 253.667 781.727 250.364C781.727 247.97 781.167 245.909 780.045 244.182C778.924 242.424 777.333 241.076 775.273 240.136C773.212 239.167 770.742 238.682 767.864 238.682H753.545V260.864ZM753.545 224.182H766C768.455 224.182 770.636 223.773 772.545 222.955C774.455 222.136 775.939 220.955 777 219.409C778.091 217.864 778.636 216 778.636 213.818C778.636 210.697 777.53 208.242 775.318 206.455C773.106 204.667 770.121 203.773 766.364 203.773H753.545V224.182ZM816.045 279V185.909H880.955V204.182H838.545V223.273H877.636V241.591H838.545V260.727H880.955V279H816.045ZM895.045 279V185.909H959.955V204.182H917.545V223.273H956.636V241.591H917.545V260.727H959.955V279H895.045ZM974.045 279V185.909H1012.5C1019.47 185.909 1025.48 187.167 1030.55 189.682C1035.64 192.167 1039.56 195.742 1042.32 200.409C1045.08 205.045 1046.45 210.545 1046.45 216.909C1046.45 223.364 1045.05 228.848 1042.23 233.364C1039.41 237.848 1035.41 241.273 1030.23 243.636C1025.05 245.97 1018.91 247.136 1011.82 247.136H987.5V229.409H1007.64C1011.03 229.409 1013.86 228.97 1016.14 228.091C1018.44 227.182 1020.18 225.818 1021.36 224C1022.55 222.152 1023.14 219.788 1023.14 216.909C1023.14 214.03 1022.55 211.652 1021.36 209.773C1020.18 207.864 1018.44 206.439 1016.14 205.5C1013.83 204.53 1011 204.045 1007.64 204.045H996.545V279H974.045ZM1026.45 236.455L1049.64 279H1025.09L1002.36 236.455H1026.45ZM731.045 340.909H758.909L782.545 398.545H783.636L807.273 340.909H835.136V434H813.227V376.818H812.455L790.091 433.409H776.091L753.727 376.5H752.955V434H731.045V340.909ZM871.67 340.909V434H849.17V340.909H871.67ZM885.795 434V340.909H908.295V415.727H947.023V434H885.795ZM958.67 434V340.909H981.17V380.273H982.398L1013.17 340.909H1039.67L1006.67 382.455L1040.26 434H1013.35L990.17 397.409L981.17 408.773V434H958.67ZM1097.86 368.818C1097.56 365.485 1096.21 362.894 1093.82 361.045C1091.45 359.167 1088.08 358.227 1083.68 358.227C1080.77 358.227 1078.35 358.606 1076.41 359.364C1074.47 360.121 1073.02 361.167 1072.05 362.5C1071.08 363.803 1070.58 365.303 1070.55 367C1070.48 368.394 1070.76 369.621 1071.36 370.682C1072 371.742 1072.91 372.682 1074.09 373.5C1075.3 374.288 1076.76 374.985 1078.45 375.591C1080.15 376.197 1082.06 376.727 1084.18 377.182L1092.18 379C1096.79 380 1100.85 381.333 1104.36 383C1107.91 384.667 1110.88 386.652 1113.27 388.955C1115.7 391.258 1117.53 393.909 1118.77 396.909C1120.02 399.909 1120.65 403.273 1120.68 407C1120.65 412.879 1119.17 417.924 1116.23 422.136C1113.29 426.348 1109.06 429.576 1103.55 431.818C1098.06 434.061 1091.44 435.182 1083.68 435.182C1075.89 435.182 1069.11 434.015 1063.32 431.682C1057.53 429.348 1053.03 425.803 1049.82 421.045C1046.61 416.288 1044.95 410.273 1044.86 403H1066.41C1066.59 406 1067.39 408.5 1068.82 410.5C1070.24 412.5 1072.2 414.015 1074.68 415.045C1077.2 416.076 1080.11 416.591 1083.41 416.591C1086.44 416.591 1089.02 416.182 1091.14 415.364C1093.29 414.545 1094.94 413.409 1096.09 411.955C1097.24 410.5 1097.83 408.833 1097.86 406.955C1097.83 405.197 1097.29 403.697 1096.23 402.455C1095.17 401.182 1093.53 400.091 1091.32 399.182C1089.14 398.242 1086.35 397.379 1082.95 396.591L1073.23 394.318C1065.17 392.47 1058.82 389.485 1054.18 385.364C1049.55 381.212 1047.24 375.606 1047.27 368.545C1047.24 362.788 1048.79 357.742 1051.91 353.409C1055.03 349.076 1059.35 345.697 1064.86 343.273C1070.38 340.848 1076.67 339.636 1083.73 339.636C1090.94 339.636 1097.2 340.864 1102.5 343.318C1107.83 345.742 1111.97 349.152 1114.91 353.545C1117.85 357.939 1119.35 363.03 1119.41 368.818H1097.86ZM1132.05 434V340.909H1154.55V378.273H1191.23V340.909H1213.68V434H1191.23V396.591H1154.55V434H1132.05ZM1247.93 434H1223.75L1255.16 340.909H1285.11L1316.52 434H1292.34L1270.48 364.364H1269.75L1247.93 434ZM1244.7 397.364H1295.25V414.455H1244.7V397.364ZM1326.55 434V340.909H1349.05V380.273H1350.27L1381.05 340.909H1407.55L1374.55 382.455L1408.14 434H1381.23L1358.05 397.409L1349.05 408.773V434H1326.55ZM1416.42 434V340.909H1481.33V359.182H1438.92V378.273H1478.01V396.591H1438.92V415.727H1481.33V434H1416.42Z" fill="url(#paint0_linear_4_5)" shape-rendering="crispEdges"/>
</g>
</g>
<defs>
<filter id="filter0_d_4_5" x="2.04547" y="29.6364" width="675.727" height="103.636" filterUnits="userSpaceOnUse" color-interpolation-filters="sRGB">
<feFlood flood-opacity="0" result="BackgroundImageFix"/>
<feColorMatrix in="SourceAlpha" type="matrix" values="0 0 0 0 0 0 0 0 0 0 0 0 0 0 0 0 0 0 127 0" result="hardAlpha"/>
<feOffset dy="4"/>
<feGaussianBlur stdDeviation="2"/>
<feComposite in2="hardAlpha" operator="out"/>
<feColorMatrix type="matrix" values="0 0 0 0 0 0 0 0 0 0 0 0 0 0 0 0 0 0 0.25 0"/>
<feBlend mode="normal" in2="BackgroundImageFix" result="effect1_dropShadow_4_5"/>
<feBlend mode="normal" in="SourceGraphic" in2="effect1_dropShadow_4_5" result="shape"/>
</filter>
<filter id="filter1_d_4_5" x="727.045" y="30.9091" width="758.284" height="412.273" filterUnits="userSpaceOnUse" color-interpolation-filters="sRGB">
<feFlood flood-opacity="0" result="BackgroundImageFix"/>
<feColorMatrix in="SourceAlpha" type="matrix" values="0 0 0 0 0 0 0 0 0 0 0 0 0 0 0 0 0 0 127 0" result="hardAlpha"/>
<feOffset dy="4"/>
<feGaussianBlur stdDeviation="2"/>
<feComposite in2="hardAlpha" operator="out"/>
<feColorMatrix type="matrix" values="0 0 0 0 0 0 0 0 0 0 0 0 0 0 0 0 0 0 0.25 0"/>
<feBlend mode="normal" in2="BackgroundImageFix" result="effect1_dropShadow_4_5"/>
<feBlend mode="normal" in="SourceGraphic" in2="effect1_dropShadow_4_5" result="shape"/>
</filter>
<linearGradient id="paint0_linear_4_5" x1="724" y1="57" x2="1585.22" y2="254.042" gradientUnits="userSpaceOnUse">
<stop stop-color="#FFF176"/>
<stop offset="0.9999" stop-color="#FAE212" stop-opacity="0.56"/>
<stop offset="1" stop-color="#FAE212" stop-opacity="0"/>
</linearGradient>
<clipPath id="clip0_4_5">
<rect width="765" height="147" fill="white" transform="translate(724)"/>
</clipPath>
</defs>
</svg>
