<svg width="1750" height="762" fill="none" xmlns="http://www.w3.org/2000/svg"><path fill="#fff" d="M0 0h1750v762H0z"/><g filter="url(#a)"><path d="M952.045 310.909h27.864l23.641 57.636h1.09l23.63-57.636h27.87V404h-21.91v-57.182h-.78l-22.36 56.591h-13.999L974.727 346.5h-.772V404h-21.91v-93.091Zm140.625 0V404h-22.5v-93.091h22.5ZM1106.8 404v-93.091h22.5v74.818h38.72V404h-61.22Zm72.87 0v-93.091h22.5v39.364h1.23l30.77-39.364h26.5l-33 41.546L1261.26 404h-26.91l-23.18-36.591-9 11.364V404h-22.5Zm139.19-65.182c-.3-3.333-1.65-5.924-4.04-7.773-2.37-1.878-5.74-2.818-10.14-2.818-2.91 0-5.33.379-7.27 1.137-1.94.757-3.39 1.803-4.36 3.136-.97 1.303-1.47 2.803-1.5 4.5-.07 1.394.21 2.621.81 3.682.64 1.06 1.55 2 2.73 2.818 1.21.788 2.67 1.485 4.36 2.091 1.7.606 3.61 1.136 5.73 1.591l8 1.818c4.61 1 8.67 2.333 12.18 4 3.55 1.667 6.52 3.652 8.91 5.955 2.43 2.303 4.26 4.954 5.5 7.954 1.25 3 1.88 6.364 1.91 10.091-.03 5.879-1.51 10.924-4.45 15.136-2.94 4.212-7.17 7.44-12.68 9.682-5.49 2.243-12.11 3.364-19.87 3.364-7.79 0-14.57-1.167-20.36-3.5-5.79-2.334-10.29-5.879-13.5-10.637-3.21-4.757-4.87-10.772-4.96-18.045h21.55c.18 3 .98 5.5 2.41 7.5 1.42 2 3.38 3.515 5.86 4.545 2.52 1.031 5.43 1.546 8.73 1.546 3.03 0 5.61-.409 7.73-1.227 2.15-.819 3.8-1.955 4.95-3.409 1.15-1.455 1.74-3.122 1.77-5-.03-1.758-.57-3.258-1.63-4.5-1.06-1.273-2.7-2.364-4.91-3.273-2.18-.94-4.97-1.803-8.37-2.591l-9.72-2.273c-8.06-1.848-14.41-4.833-19.05-8.954-4.63-4.152-6.94-9.758-6.91-16.819-.03-5.757 1.52-10.803 4.64-15.136 3.12-4.333 7.44-7.712 12.95-10.136 5.52-2.425 11.81-3.637 18.87-3.637 7.21 0 13.47 1.228 18.77 3.682 5.33 2.424 9.47 5.834 12.41 10.227 2.94 4.394 4.44 9.485 4.5 15.273h-21.55ZM1353.05 404v-93.091h22.5v37.364h36.68v-37.364h22.45V404h-22.45v-37.409h-36.68V404h-22.5Zm115.88 0h-24.18l31.41-93.091h29.95L1537.52 404h-24.18l-21.86-69.636h-.73L1468.93 404Zm-3.23-36.636h50.55v17.091h-50.55v-17.091ZM1547.55 404v-93.091h22.5v39.364h1.22l30.78-39.364h26.5l-33 41.546L1629.14 404h-26.91l-23.18-36.591-9 11.364V404h-22.5Zm89.87 0v-93.091h64.91v18.273h-42.41v19.091h39.09v18.318h-39.09v19.136h42.41V404h-64.91Z" fill="url(#b)" shape-rendering="crispEdges"/></g><g filter="url(#c)"><path d="M986.455 249h-34.41v-93.091h34.364c9.485 0 17.651 1.864 24.501 5.591 6.88 3.697 12.18 9.03 15.91 16 3.73 6.939 5.59 15.242 5.59 24.909 0 9.697-1.86 18.03-5.59 25-3.7 6.97-8.99 12.318-15.87 16.046-6.87 3.697-15.041 5.545-24.495 5.545Zm-11.91-19.182h11.046c5.212 0 9.621-.879 13.227-2.636 3.632-1.788 6.382-4.682 8.232-8.682 1.87-4.03 2.81-9.394 2.81-16.091 0-6.697-.94-12.03-2.81-16-1.88-4-4.66-6.879-8.323-8.636-3.636-1.788-8.121-2.682-13.454-2.682h-10.728v54.727ZM1045.55 249v-93.091H1084c6.97 0 12.98 1.258 18.05 3.773 5.09 2.485 9.01 6.06 11.77 10.727 2.76 4.636 4.13 10.136 4.13 16.5 0 6.455-1.4 11.939-4.22 16.455-2.82 4.484-6.82 7.909-12 10.272-5.18 2.334-11.32 3.5-18.41 3.5H1059v-17.727h20.14c3.39 0 6.22-.439 8.5-1.318 2.3-.909 4.04-2.273 5.22-4.091 1.19-1.848 1.78-4.212 1.78-7.091 0-2.879-.59-5.257-1.78-7.136-1.18-1.909-2.92-3.334-5.22-4.273-2.31-.97-5.14-1.455-8.5-1.455h-11.09V249h-22.5Zm52.4-42.545L1121.14 249h-24.55l-22.73-42.545h24.09Zm54.85-50.546V249h-22.5v-93.091h22.5Zm93.35 0V249h-19.09l-37.05-53.727h-.59V249h-22.5v-93.091h19.36l36.64 53.636h.77v-53.636h22.46ZM1260.3 249v-93.091h22.5v39.364h1.22l30.78-39.364h26.5l-33 41.546L1341.89 249h-26.91l-23.18-36.591-9 11.364V249h-22.5Z" fill="url(#d)" shape-rendering="crispEdges"/></g><path d="M324 174.182v-18.273h78.682v18.273h-28.227V249h-22.182v-74.818H324ZM413.67 249v-93.091h38.455c6.97 0 12.985 1.258 18.045 3.773 5.091 2.485 9.016 6.06 11.773 10.727 2.758 4.636 4.137 10.136 4.137 16.5 0 6.455-1.41 11.939-4.228 16.455-2.818 4.484-6.818 7.909-12 10.272-5.182 2.334-11.318 3.5-18.409 3.5h-24.318v-17.727h20.136c3.394 0 6.228-.439 8.5-1.318 2.303-.909 4.046-2.273 5.228-4.091 1.181-1.848 1.772-4.212 1.772-7.091 0-2.879-.591-5.257-1.772-7.136-1.182-1.909-2.925-3.334-5.228-4.273-2.303-.97-5.136-1.455-8.5-1.455H436.17V249h-22.5Zm52.41-42.545L489.261 249h-24.545l-22.727-42.545h24.091Zm23.579-50.546h25.136l19.682 38.955h.818l19.682-38.955h25.137l-34.046 62V249h-22.363v-31.091l-34.046-62Zm215.25 46.546c0 10.242-1.97 18.924-5.909 26.045-3.939 7.121-9.273 12.53-16 16.227-6.697 3.697-14.212 5.546-22.545 5.546-8.364 0-15.894-1.864-22.591-5.591-6.697-3.727-12.016-9.137-15.955-16.227-3.909-7.122-5.864-15.788-5.864-26 0-10.243 1.955-18.925 5.864-26.046 3.939-7.121 9.258-12.53 15.955-16.227 6.697-3.697 14.227-5.546 22.591-5.546 8.333 0 15.848 1.849 22.545 5.546 6.727 3.697 12.061 9.106 16 16.227s5.909 15.803 5.909 26.046Zm-23 0c0-6.061-.864-11.182-2.591-15.364-1.697-4.182-4.151-7.349-7.363-9.5-3.182-2.152-7.016-3.227-11.5-3.227-4.455 0-8.288 1.075-11.5 3.227-3.213 2.151-5.682 5.318-7.41 9.5-1.697 4.182-2.545 9.303-2.545 15.364 0 6.06.848 11.181 2.545 15.363 1.728 4.182 4.197 7.349 7.41 9.5 3.212 2.152 7.045 3.227 11.5 3.227 4.484 0 8.318-1.075 11.5-3.227 3.212-2.151 5.666-5.318 7.363-9.5 1.727-4.182 2.591-9.303 2.591-15.363Zm92.455-46.546h22.454v60.046c0 6.939-1.651 12.984-4.954 18.136-3.303 5.121-7.909 9.091-13.819 11.909-5.909 2.788-12.772 4.182-20.59 4.182-7.91 0-14.819-1.394-20.728-4.182-5.909-2.818-10.5-6.788-13.772-11.909-3.273-5.152-4.91-11.197-4.91-18.136v-60.046h22.5V214c0 3.212.697 6.076 2.091 8.591 1.425 2.515 3.409 4.485 5.955 5.909 2.545 1.424 5.5 2.136 8.864 2.136 3.363 0 6.303-.712 8.818-2.136 2.545-1.424 4.53-3.394 5.954-5.909 1.425-2.515 2.137-5.379 2.137-8.591v-58.091ZM810.92 249v-93.091h38.455c6.97 0 12.985 1.258 18.045 3.773 5.091 2.485 9.016 6.06 11.773 10.727 2.758 4.636 4.137 10.136 4.137 16.5 0 6.455-1.41 11.939-4.228 16.455-2.818 4.484-6.818 7.909-12 10.272-5.182 2.334-11.318 3.5-18.409 3.5h-24.318v-17.727h20.136c3.394 0 6.228-.439 8.5-1.318 2.303-.909 4.046-2.273 5.228-4.091 1.181-1.848 1.772-4.212 1.772-7.091 0-2.879-.591-5.257-1.772-7.136-1.182-1.909-2.925-3.334-5.228-4.273-2.303-.97-5.136-1.455-8.5-1.455H833.42V249h-22.5Zm52.41-42.545L886.511 249h-24.545l-22.727-42.545h24.091Z" fill="#000"/><g filter="url(#e)"><path d="M974.545 447.909V541h-22.5v-93.091h22.5Zm98.625 33.727h-22.73c-.3-2.333-.92-4.439-1.86-6.318-.94-1.879-2.18-3.485-3.73-4.818-1.54-1.333-3.38-2.348-5.5-3.045-2.09-.728-4.41-1.091-6.95-1.091-4.52 0-8.41 1.106-11.68 3.318-3.25 2.212-5.75 5.409-7.5 9.591-1.73 4.182-2.6 9.242-2.6 15.182 0 6.181.88 11.363 2.64 15.545 1.79 4.152 4.29 7.288 7.5 9.409 3.24 2.091 7.08 3.136 11.5 3.136 2.49 0 4.74-.318 6.77-.954 2.06-.636 3.87-1.561 5.41-2.773a15.273 15.273 0 0 0 3.87-4.5c1.03-1.788 1.74-3.803 2.13-6.045l22.73.136c-.39 4.121-1.59 8.182-3.59 12.182-1.97 4-4.68 7.651-8.14 10.954-3.45 3.273-7.66 5.879-12.63 7.819-4.94 1.939-10.61 2.909-17 2.909-8.43 0-15.97-1.849-22.64-5.546-6.64-3.727-11.878-9.151-15.727-16.272-3.848-7.122-5.773-15.788-5.773-26 0-10.243 1.955-18.925 5.864-26.046 3.909-7.121 9.196-12.53 15.866-16.227 6.66-3.697 14.13-5.546 22.41-5.546 5.63 0 10.85.788 15.63 2.364 4.79 1.545 9 3.818 12.64 6.818 3.64 2.97 6.59 6.621 8.86 10.955 2.28 4.333 3.68 9.288 4.23 14.863ZM1086.05 541v-93.091h64.9v18.273h-42.4v19.091h39.09v18.318h-39.09v19.136h42.4V541h-64.9Zm191-59.364h-22.73c-.3-2.333-.93-4.439-1.87-6.318a15.278 15.278 0 0 0-3.72-4.818c-1.55-1.333-3.38-2.348-5.5-3.045-2.09-.728-4.41-1.091-6.96-1.091-4.51 0-8.41 1.106-11.68 3.318-3.24 2.212-5.74 5.409-7.5 9.591-1.73 4.182-2.59 9.242-2.59 15.182 0 6.181.88 11.363 2.64 15.545 1.78 4.152 4.28 7.288 7.5 9.409 3.24 2.091 7.07 3.136 11.5 3.136 2.48 0 4.74-.318 6.77-.954 2.06-.636 3.86-1.561 5.41-2.773a15.388 15.388 0 0 0 3.86-4.5c1.03-1.788 1.74-3.803 2.14-6.045l22.73.136c-.4 4.121-1.6 8.182-3.6 12.182-1.97 4-4.68 7.651-8.13 10.954-3.46 3.273-7.67 5.879-12.64 7.819-4.94 1.939-10.6 2.909-17 2.909-8.42 0-15.97-1.849-22.63-5.546-6.64-3.727-11.88-9.151-15.73-16.272-3.85-7.122-5.77-15.788-5.77-26 0-10.243 1.95-18.925 5.86-26.046 3.91-7.121 9.2-12.53 15.86-16.227 6.67-3.697 14.14-5.546 22.41-5.546 5.64 0 10.85.788 15.64 2.364 4.79 1.545 9 3.818 12.63 6.818 3.64 2.97 6.6 6.621 8.87 10.955 2.27 4.333 3.68 9.288 4.23 14.863ZM1289.92 541v-93.091h38.46c6.96 0 12.98 1.258 18.04 3.773 5.09 2.485 9.02 6.06 11.77 10.727 2.76 4.636 4.14 10.136 4.14 16.5 0 6.455-1.41 11.939-4.23 16.455-2.82 4.484-6.82 7.909-12 10.272-5.18 2.334-11.32 3.5-18.41 3.5h-24.31v-17.727h20.13c3.4 0 6.23-.439 8.5-1.318 2.3-.909 4.05-2.273 5.23-4.091 1.18-1.848 1.77-4.212 1.77-7.091 0-2.879-.59-5.257-1.77-7.136-1.18-1.909-2.93-3.334-5.23-4.273-2.3-.97-5.13-1.455-8.5-1.455h-11.09V541h-22.5Zm52.41-42.545L1365.51 541h-24.54l-22.73-42.545h24.09ZM1374.67 541v-93.091h64.91v18.273h-42.41v19.091h39.09v18.318h-39.09v19.136h42.41V541h-64.91Zm99.14 0h-24.19l31.41-93.091h29.96L1542.4 541h-24.18l-21.87-69.636h-.73L1473.81 541Zm-3.23-36.636h50.54v17.091h-50.54v-17.091Zm81.84-56.455h27.86l23.64 57.636h1.09l23.64-57.636h27.86V541h-21.91v-57.182h-.77l-22.36 56.591h-14L1575.1 483.5h-.77V541h-21.91v-93.091Z" fill="url(#f)" shape-rendering="crispEdges"/></g><defs><linearGradient id="b" x1="1327.5" y1="280" x2="1327.5" y2="435" gradientUnits="userSpaceOnUse"><stop stop-color="#FF7E07"/><stop offset="1" stop-color="#FFE607" stop-opacity="0"/></linearGradient><linearGradient id="d" x1="1144.5" y1="125" x2="1144.5" y2="280" gradientUnits="userSpaceOnUse"><stop stop-color="#07D2FF"/><stop offset="1" stop-color="#FFE607" stop-opacity="0"/></linearGradient><linearGradient id="f" x1="1304.5" y1="417" x2="1304.5" y2="572" gradientUnits="userSpaceOnUse"><stop stop-color="#FF6B00"/><stop offset="1" stop-color="#6607FF" stop-opacity="0"/></linearGradient><filter id="a" x="948.045" y="309.636" width="758.284" height="103.545" filterUnits="userSpaceOnUse" color-interpolation-filters="sRGB"><feFlood flood-opacity="0" result="BackgroundImageFix"/><feColorMatrix in="SourceAlpha" values="0 0 0 0 0 0 0 0 0 0 0 0 0 0 0 0 0 0 127 0" result="hardAlpha"/><feOffset dy="4"/><feGaussianBlur stdDeviation="2"/><feComposite in2="hardAlpha" operator="out"/><feColorMatrix values="0 0 0 0 0 0 0 0 0 0 0 0 0 0 0 0 0 0 0.25 0"/><feBlend in2="BackgroundImageFix" result="effect1_dropShadow_10_26"/><feBlend in="SourceGraphic" in2="effect1_dropShadow_10_26" result="shape"/><feColorMatrix in="SourceAlpha" values="0 0 0 0 0 0 0 0 0 0 0 0 0 0 0 0 0 0 127 0" result="hardAlpha"/><feOffset dy="4"/><feGaussianBlur stdDeviation="2"/><feComposite in2="hardAlpha" operator="arithmetic" k2="-1" k3="1"/><feColorMatrix values="0 0 0 0 0 0 0 0 0 0 0 0 0 0 0 0 0 0 0.25 0"/><feBlend in2="shape" result="effect2_innerShadow_10_26"/></filter><filter id="c" x="948.045" y="155.909" width="397.841" height="101.091" filterUnits="userSpaceOnUse" color-interpolation-filters="sRGB"><feFlood flood-opacity="0" result="BackgroundImageFix"/><feColorMatrix in="SourceAlpha" values="0 0 0 0 0 0 0 0 0 0 0 0 0 0 0 0 0 0 127 0" result="hardAlpha"/><feOffset dy="4"/><feGaussianBlur stdDeviation="2"/><feComposite in2="hardAlpha" operator="out"/><feColorMatrix values="0 0 0 0 0 0 0 0 0 0 0 0 0 0 0 0 0 0 0.25 0"/><feBlend in2="BackgroundImageFix" result="effect1_dropShadow_10_26"/><feBlend in="SourceGraphic" in2="effect1_dropShadow_10_26" result="shape"/><feColorMatrix in="SourceAlpha" values="0 0 0 0 0 0 0 0 0 0 0 0 0 0 0 0 0 0 127 0" result="hardAlpha"/><feOffset dy="4"/><feGaussianBlur stdDeviation="2"/><feComposite in2="hardAlpha" operator="arithmetic" k2="-1" k3="1"/><feColorMatrix values="0 0 0 0 0 0 0 0 0 0 0 0 0 0 0 0 0 0 0.25 0"/><feBlend in2="shape" result="effect2_innerShadow_10_26"/></filter><filter id="e" x="948.045" y="446.636" width="712.466" height="103.636" filterUnits="userSpaceOnUse" color-interpolation-filters="sRGB"><feFlood flood-opacity="0" result="BackgroundImageFix"/><feColorMatrix in="SourceAlpha" values="0 0 0 0 0 0 0 0 0 0 0 0 0 0 0 0 0 0 127 0" result="hardAlpha"/><feOffset dy="4"/><feGaussianBlur stdDeviation="2"/><feComposite in2="hardAlpha" operator="out"/><feColorMatrix values="0 0 0 0 0 0 0 0 0 0 0 0 0 0 0 0 0 0 0.25 0"/><feBlend in2="BackgroundImageFix" result="effect1_dropShadow_10_26"/><feBlend in="SourceGraphic" in2="effect1_dropShadow_10_26" result="shape"/><feColorMatrix in="SourceAlpha" values="0 0 0 0 0 0 0 0 0 0 0 0 0 0 0 0 0 0 127 0" result="hardAlpha"/><feOffset dy="4"/><feGaussianBlur stdDeviation="2"/><feComposite in2="hardAlpha" operator="arithmetic" k2="-1" k3="1"/><feColorMatrix values="0 0 0 0 0 0 0 0 0 0 0 0 0 0 0 0 0 0 0.25 0"/><feBlend in2="shape" result="effect2_innerShadow_10_26"/></filter></defs></svg>